<svg width="512" height="512" viewBox="0 0 512 512" fill="none" xmlns="http://www.w3.org/2000/svg">
  <rect width="512" height="512" rx="120" fill="#0B141A"/>
  <path d="M256 96C167.635 96 96 167.635 96 256C96 287.668 105.19 317.19 122.033 342.033L106 416L181.677 400.259C205.142 412.959 231.998 420 256 420C344.365 420 416 348.365 416 260C416 171.635 344.365 96 256 96Z" fill="#25D366"/>
  <path d="M201.778 178.667C193.802 178.667 188.087 182.308 184.108 189.589C178.716 199.309 177.061 212.282 180.481 226.163C188.619 259.621 222.079 296.207 255.163 313.105C268.078 319.625 280.175 322.65 290.522 322.65C299.823 322.65 307.705 320.18 313.836 315.146L329.852 302.171C334.083 298.75 335.315 292.802 332.867 287.857L320.278 262.595C317.738 257.558 311.695 255.254 306.49 257.324L287.673 264.88C284.074 266.331 279.98 265.532 277.246 262.896L248.09 235.211C245.453 232.688 244.373 228.904 245.229 225.364L249.929 206.141C251.172 201.046 248.923 195.75 244.002 193.047L219.809 179.833C214.684 177.03 208.383 176.879 201.778 178.667Z" fill="#0B141A"/>
  <circle cx="350" cy="164" r="44" fill="#E9EDEF"/>
  <path d="M333 164H367" stroke="#0B141A" stroke-width="18" stroke-linecap="round"/>
  <path d="M350 147V181" stroke="#0B141A" stroke-width="18" stroke-linecap="round"/>
</svg>
